Land_normalized_pl06_filtered_grf
version=1
nRows=25
nColumns=37
inDegrees=yes
endheader
time		1_ground_force_vx		1_ground_force_vy		1_ground_force_vz		1_ground_force_px		1_ground_force_py		1_ground_force_pz		1_ground_torque_x		1_ground_torque_y		1_ground_torque_z		2_ground_force_vx		2_ground_force_vy		2_ground_force_vz		2_ground_force_px		2_ground_force_py		2_ground_force_pz		2_ground_torque_x		2_ground_torque_y		2_ground_torque_z		3_ground_force_vx		3_ground_force_vy		3_ground_force_vz		3_ground_force_px		3_ground_force_py		3_ground_force_pz		3_ground_torque_x		3_ground_torque_y		3_ground_torque_z		4_ground_force_vx		4_ground_force_vy		4_ground_force_vz		4_ground_force_px		4_ground_force_py		4_ground_force_pz		4_ground_torque_x		4_ground_torque_y		4_ground_torque_z		
0.886167		-35.843709		750.213607		222.204474		0.116802		0.000000		0.228575		-0.763999		15.991386		4.736496		47.241323		985.401274		244.797282		-0.119240		0.000000		0.234217		-0.378631		-7.898028		-1.962035		22.216882		0.393129		0.587374		0.375566		1.310867		1.913648		-0.103608		-0.001833		-0.002739		-18.736243		-0.533966		2.328513		-0.265303		1.310083		1.924725		0.007490		0.000214		-0.000931		
0.889323		-42.872887		746.571688		215.431972		0.118064		0.000000		0.228934		-0.875477		15.245844		4.399390		47.259259		945.071069		241.000608		-0.119116		0.000000		0.232953		-0.354058		-7.080361		-1.805535		22.182033		0.393898		0.522915		0.375568		1.310882		1.913622		-0.099617		-0.001769		-0.002348		-18.846460		-0.519322		2.271553		-0.265301		1.310084		1.924687		0.010219		0.000281		-0.001232		
0.892480		-49.617637		743.640867		211.143172		0.119199		0.000000		0.229081		-0.967469		14.499968		4.117002		47.124533		906.065043		238.297315		-0.118940		0.000000		0.231608		-0.341537		-6.566765		-1.727073		22.152285		0.448965		0.481574		0.375567		1.310903		1.913597		-0.095722		-0.001940		-0.002081		-18.969674		-0.555228		2.175775		-0.265290		1.310080		1.924639		0.012074		0.000354		-0.001385		
0.895636		-55.849831		740.238815		208.397521		0.120099		0.000000		0.228635		-1.033719		13.701412		3.857329		47.792946		869.353999		237.385006		-0.118857		0.000000		0.230095		-0.333190		-6.060843		-1.654949		22.117565		0.537736		0.491353		0.375563		1.310925		1.913575		-0.092469		-0.002248		-0.002055		-19.064539		-0.637200		2.064776		-0.265273		1.310073		1.924585		0.012724		0.000425		-0.001378		
0.898793		-61.257553		735.743773		206.173403		0.120759		0.000000		0.227639		-1.074072		12.900676		3.615089		49.626371		835.684090		238.641439		-0.118977		0.000000		0.228366		-0.319849		-5.386384		-1.538112		22.075203		0.627959		0.549776		0.375555		1.310941		1.913552		-0.090404		-0.002572		-0.002252		-19.105053		-0.738269		1.966426		-0.265255		1.310065		1.924528		0.012400		0.000479		-0.001276		
0.901949		-65.463738		730.152999		204.096896		0.121208		0.000000		0.226364		-1.091541		12.174644		3.403133		52.350379		805.775284		241.728871		-0.119345		0.000000		0.226488		-0.296627		-4.565814		-1.369700		22.030801		0.695858		0.620424		0.375549		1.310950		1.913528		-0.089962		-0.002841		-0.002534		-19.087844		-0.817791		1.902594		-0.265238		1.310059		1.924475		0.011750		0.000504		-0.001171		
0.905106		-68.112065		723.943960		202.407640		0.121470		0.000000		0.225075		-1.089893		11.584220		3.238833		55.458604		780.331204		245.595797		-0.119948		0.000000		0.224648		-0.266669		-3.752398		-1.180965		21.997077		0.738641		0.653019		0.375546		1.310949		1.913500		-0.091289		-0.003065		-0.002710		-19.030098		-0.836946		1.882077		-0.265224		1.310056		1.924427		0.011567		0.000509		-0.001144		
0.908263		-69.007921		717.858939		201.489695		0.121558		0.000000		0.223941		-1.076859		11.202094		3.144218		58.638951		759.842613		248.952557		-0.120730		0.000000		0.223057		-0.239167		-3.099354		-1.015429		21.988178		0.773097		0.613995		0.375551		1.310944		1.913468		-0.094034		-0.003306		-0.002626		-18.961251		-0.779343		1.899586		-0.265211		1.310054		1.924383		0.012412		0.000510		-0.001244		
0.911419		-68.200079		712.608965		201.541816		0.121500		0.000000		0.223065		-1.063405		11.111306		3.142528		61.891244		744.536050		250.969963		-0.121639		0.000000		0.221856		-0.220723		-2.655314		-0.895051		22.011757		0.820850		0.506857		0.375562		1.310941		1.913432		-0.097341		-0.003630		-0.002242		-18.909457		-0.659814		1.942874		-0.265197		1.310053		1.924341		0.014315		0.000499		-0.001471		
0.914576		-65.975699		708.606433		202.597088		0.121326		0.000000		0.222470		-1.052626		11.305691		3.232406		65.330167		734.412260		251.628510		-0.122641		0.000000		0.221056		-0.209098		-2.350640		-0.805387		22.066075		0.893837		0.370914		0.375577		1.310941		1.913391		-0.100198		-0.004059		-0.001685		-18.892848		-0.516996		1.999036		-0.265182		1.310049		1.924298		0.016737		0.000458		-0.001771		
0.917732		-62.730157		705.802436		204.606504		0.121034		0.000000		0.222029		-1.035463		11.650556		3.377415		68.964550		729.245245		251.526235		-0.123704		0.000000		0.220572		-0.195064		-2.062760		-0.711471		22.142524		0.988106		0.259414		0.375596		1.310945		1.913348		-0.102003		-0.004552		-0.001195		-18.915734		-0.397633		2.053965		-0.265163		1.310041		1.924251		0.018767		0.000394		-0.002038		
0.920889		-58.779723		703.774088		207.430806		0.120571		0.000000		0.221484		-1.002085		11.998145		3.536349		72.651198		728.654705		251.247394		-0.124780		0.000000		0.220303		-0.170788		-1.712999		-0.590661		22.226773		1.087957		0.210712		0.375614		1.310952		1.913302		-0.102894		-0.005037		-0.000975		-18.966245		-0.339151		2.088160		-0.265142		1.310028		1.924202		0.019512		0.000349		-0.002149		
0.924045		-54.310135		702.019549		210.788389		0.119879		0.000000		0.220626		-0.952668		12.314363		3.697515		76.189413		732.192918		250.825602		-0.125808		0.000000		0.220215		-0.136338		-1.310265		-0.448858		22.297519		1.174850		0.231144		0.375626		1.310957		1.913252		-0.103558		-0.005456		-0.001074		-19.018423		-0.359207		2.076946		-0.265123		1.310014		1.924151		0.018486		0.000349		-0.002019		
0.927202		-49.489623		700.242769		214.305432		0.118998		0.000000		0.219495		-0.893616		12.644251		3.869717		79.401841		739.308713		249.688298		-0.126728		0.000000		0.220349		-0.099537		-0.926843		-0.313038		22.328379		1.233177		0.294639		0.375632		1.310960		1.913204		-0.104742		-0.005785		-0.001382		-19.042563		-0.450872		2.000759		-0.265107		1.310001		1.924102		0.015908		0.000377		-0.001671		
0.930359		-44.543789		698.458139		217.684055		0.118078		0.000000		0.218367		-0.829372		13.004986		4.053193		82.140389		749.326059		247.087683		-0.127502		0.000000		0.220757		-0.070706		-0.645032		-0.212708		22.298029		1.251789		0.357430		0.375633		1.310962		1.913158		-0.106718		-0.005991		-0.001711		-19.022445		-0.586450		1.860493		-0.265097		1.309993		1.924058		0.012704		0.000392		-0.001243		
0.933515		-39.708540		696.904345		220.829439		0.117297		0.000000		0.217567		-0.761576		13.366073		4.235335		84.245155		761.527040		242.644134		-0.128109		0.000000		0.221443		-0.056746		-0.512950		-0.163441		22.203074		1.223585		0.379244		0.375631		1.310965		1.913120		-0.109117		-0.006013		-0.001864		-18.963792		-0.729358		1.682910		-0.265095		1.309992		1.924021		0.010141		0.000390		-0.000900		
0.936672		-35.183319		695.894372		223.771319		0.116742		0.000000		0.217246		-0.692865		13.704470		4.406808		85.539378		775.175331		236.636448		-0.128546		0.000000		0.222329		-0.057702		-0.522907		-0.159622		22.066549		1.148439		0.340479		0.375629		1.310972		1.913094		-0.111187		-0.005786		-0.001716		-18.887772		-0.844163		1.512583		-0.265098		1.309996		1.923992		0.009311		0.000416		-0.000746		
0.939828		-31.160038		695.720195		226.466865		0.116365		0.000000		0.217273		-0.627620		14.013253		4.561520		85.897149		789.539471		229.892174		-0.128814		0.000000		0.223277		-0.067167		-0.617387		-0.179758		21.932484		1.038627		0.248914		0.375626		1.310982		1.913081		-0.112268		-0.005317		-0.001274		-18.816153		-0.906482		1.392673		-0.265104		1.310006		1.923971		0.010535		0.000507		-0.000780		
0.942985		-27.880156		696.685786		228.669787		0.116067		0.000000		0.217365		-0.570967		14.267678		4.683011		85.279058		803.929336		223.322448		-0.128913		0.000000		0.224149		-0.077618		-0.731710		-0.203260		21.846047		0.919161		0.129560		0.375623		1.310995		1.913082		-0.112134		-0.004718		-0.000665		-18.760962		-0.907666		1.347358		-0.265110		1.310016		1.923959		0.013157		0.000636		-0.000945		
0.946141		-25.604192		699.184408		230.002940		0.115818		0.000000		0.217321		-0.528422		14.429863		4.746832		83.724326		817.645705		217.549627		-0.128834		0.000000		0.224852		-0.085657		-0.836540		-0.222572		21.838942		0.823945		0.013126		0.375615		1.311008		1.913092		-0.110993		-0.004187		-0.000067		-18.725876		-0.855564		1.373390		-0.265116		1.310025		1.923956		0.015837		0.000724		-0.001161		
0.949298		-24.499681		703.616410		230.122521		0.115695		0.000000		0.217200		-0.504646		14.493135		4.740080		81.325461		829.993534		212.747981		-0.128583		0.000000		0.225353		-0.093032		-0.949498		-0.243374		21.920988		0.784034		-0.076262		0.375601		1.311018		1.913106		-0.109204		-0.003906		0.000380		-18.714149		-0.773107		1.442972		-0.265121		1.310031		1.923963		0.017312		0.000715		-0.001335		
0.952455		-24.626094		710.221579		228.771679		0.115831		0.000000		0.217240		-0.502289		14.486121		4.666172		78.201340		840.308401		208.781807		-0.128185		0.000000		0.225669		-0.102920		-1.105944		-0.274778		22.081121		0.814721		-0.125889		0.375580		1.311023		1.913121		-0.107056		-0.003950		0.000610		-18.733922		-0.689435		1.519702		-0.265126		1.310032		1.923981		0.017049		0.000628		-0.001383		
0.955611		-25.964615		718.857986		225.789461		0.116309		0.000000		0.217654		-0.521635		14.442086		4.536193		74.550222		847.999015		205.411896		-0.127685		0.000000		0.225833		-0.116236		-1.322232		-0.320281		22.290666		0.907789		-0.131145		0.375554		1.311024		1.913132		-0.104857		-0.004270		0.000617		-18.792906		-0.629729		1.573309		-0.265130		1.310030		1.924009		0.015339		0.000514		-0.001284		
0.958768		-28.412121		728.903075		221.231265		0.117103		0.000000		0.218459		-0.560393		14.376836		4.363571		70.692843		852.678197		202.434616		-0.127148		0.000000		0.225873		-0.130608		-1.575456		-0.374023		22.510612		1.031325		-0.093368		0.375530		1.311024		1.913144		-0.103098		-0.004724		0.000428		-18.886516		-0.606818		1.591491		-0.265138		1.310024		1.924044		0.012958		0.000416		-0.001092		
0.961924		-31.787271		739.455617		215.437736		0.118101		0.000000		0.219499		-0.614015		14.283707		4.161519		66.990137		854.237073		199.733077		-0.126629		0.000000		0.225805		-0.142177		-1.813032		-0.423912		22.703305		1.141773		-0.017995		0.375512		1.311026		1.913158		-0.102362		-0.005148		0.000081		-18.990549		-0.619719		1.582524		-0.265147		1.310020		1.924085		0.010621		0.000346		-0.000885		
